<svg width="20" height="20" viewBox="0 0 20 20" fill="none" xmlns="http://www.w3.org/2000/svg">
<path d="M10.842 0.821886C10.9016 0.842138 10.9613 0.86236 11.021 0.882554C11.1801 0.936482 11.339 0.99086 11.4979 1.04533C11.6306 1.09076 11.7633 1.13591 11.8961 1.18105C12.6507 1.43762 13.4044 1.69682 14.156 1.96186C14.6066 2.12035 15.0588 2.27371 15.5114 2.42589C15.5748 2.44722 15.6382 2.46854 15.7016 2.48987C15.9871 2.58591 16.2727 2.68183 16.5585 2.77721C16.6775 2.81697 16.7964 2.85692 16.9153 2.89692C16.971 2.91561 17.0268 2.93421 17.0825 2.95273C17.8795 3.21744 17.8795 3.21744 18.0078 3.43755C18.0275 3.55737 18.0275 3.55737 18.0342 3.69831C18.0355 3.72397 18.0368 3.74964 18.0381 3.77608C18.0521 4.08222 18.0533 4.38862 18.0534 4.69502C18.0535 4.75894 18.0537 4.82286 18.0538 4.88678C18.054 5.02049 18.0541 5.1542 18.0541 5.28791C18.0541 5.42155 18.0543 5.55517 18.0549 5.6888C18.0597 6.90039 18.0341 8.11381 17.8979 9.3189C17.893 9.36378 17.893 9.36378 17.888 9.40957C17.5673 12.333 16.4815 15.1097 14.1552 17.024C14.0853 17.0786 14.0153 17.1331 13.9453 17.1875C13.904 17.2218 13.8629 17.2562 13.8218 17.2907C13.1767 17.8284 12.4637 18.2855 11.7187 18.6719C11.6938 18.685 11.669 18.698 11.6433 18.7114C11.4618 18.806 11.2782 18.8957 11.0937 18.9844C11.0563 19.0027 11.0188 19.0209 10.9802 19.0397C10.8556 19.1001 10.7306 19.1595 10.6054 19.2188C10.5658 19.2381 10.5261 19.2574 10.4853 19.2772C10.4472 19.295 10.4091 19.3128 10.3698 19.3311C10.3194 19.3551 10.3194 19.3551 10.2678 19.3796C9.99881 19.4627 9.79365 19.4128 9.54572 19.2952C9.50451 19.2765 9.50451 19.2765 9.46247 19.2574C9.37358 19.2167 9.28515 19.1751 9.19675 19.1333C9.16634 19.1192 9.13592 19.105 9.10459 19.0904C7.91313 18.5356 6.7522 17.8504 5.78519 16.9513C5.71148 16.8828 5.636 16.8178 5.55906 16.753C5.15516 16.4 4.77907 16.0119 4.4531 15.586C4.43556 15.5636 4.41802 15.5412 4.39994 15.5182C2.83414 13.5214 2.24889 11.1713 2.04343 8.68169C2.04105 8.65319 2.03867 8.6247 2.03622 8.59534C1.95708 7.63145 1.94668 6.66769 1.94801 5.7012C1.94823 5.53721 1.9481 5.37322 1.94787 5.20923C1.94773 5.08037 1.94777 4.9515 1.94787 4.82263C1.9479 4.76221 1.94787 4.70178 1.94778 4.64135C1.94754 4.44836 1.94914 4.2555 1.9531 4.06255C1.95387 4.01978 1.95387 4.01978 1.95466 3.97614C1.95661 3.89088 1.95971 3.80574 1.96319 3.72053C1.96496 3.67081 1.96672 3.6211 1.96854 3.56987C1.99625 3.41464 2.03491 3.35056 2.14841 3.24224C2.24885 3.19021 2.24885 3.19021 2.3637 3.15102C2.40679 3.13597 2.44987 3.12093 2.49426 3.10543C2.54081 3.0899 2.58736 3.07437 2.63532 3.05837C2.68397 3.04158 2.73263 3.0248 2.78276 3.00751C2.91058 2.96344 3.03864 2.92013 3.16679 2.87703C3.28493 2.83719 3.40286 2.79673 3.52081 2.75634C3.75143 2.67757 3.98231 2.59958 4.21329 2.52186C4.46594 2.43682 4.71848 2.35145 4.97098 2.26598C4.99612 2.25747 5.02125 2.24897 5.04714 2.2402C5.4553 2.10202 5.86247 1.96125 6.26899 1.81834C6.54372 1.72185 6.81875 1.62624 7.09377 1.53062C7.18992 1.49716 7.28607 1.46367 7.38219 1.43014C7.70924 1.31611 8.03648 1.20267 8.36409 1.09025C8.51527 1.03835 8.66637 0.98621 8.81726 0.933451C8.95989 0.883587 9.10275 0.834419 9.2458 0.785746C9.29889 0.767551 9.35189 0.749112 9.40481 0.730411C9.96596 0.532431 10.2939 0.633207 10.842 0.821886ZM9.77789 1.50419C9.73946 1.51718 9.70102 1.53018 9.66142 1.54356C9.59826 1.56512 9.59826 1.56512 9.53382 1.58711C9.48997 1.60199 9.44612 1.61686 9.40094 1.63218C9.2813 1.67279 9.16171 1.71352 9.04213 1.75431C8.96707 1.7799 8.89199 1.80544 8.8169 1.83097C8.15513 2.05597 7.49435 2.28367 6.83483 2.51518C6.16517 2.75016 5.49308 2.97773 4.82077 3.20498C4.1489 3.43218 3.47841 3.66218 2.81247 3.9063C2.69793 7.17154 2.57579 10.9585 5.0781 15C5.10776 15.0377 5.13742 15.0754 5.16797 15.1142C5.62361 15.6726 6.14312 16.2059 6.71872 16.6407C6.75629 16.6706 6.79385 16.7006 6.83256 16.7315C7.66519 17.3934 8.58986 17.9154 9.55575 18.3559C9.61318 18.3823 9.67026 18.4095 9.72673 18.4378C9.89 18.5169 9.98165 18.5167 10.1562 18.4766C10.2351 18.4464 10.3128 18.4134 10.3895 18.3782C10.4339 18.3578 10.4784 18.3374 10.5241 18.3164C10.5716 18.2942 10.619 18.2719 10.6665 18.2496C10.6906 18.2383 10.7148 18.227 10.7396 18.2154C11.3665 17.922 11.975 17.5903 12.539 17.1875C12.5671 17.1675 12.5952 17.1475 12.6242 17.1268C13.1204 16.7717 13.1204 16.7717 13.582 16.3735C13.6594 16.3008 13.7383 16.2312 13.8186 16.1617C14.3263 15.7188 14.7638 15.2342 15.1562 14.6875C15.1825 14.6519 15.2088 14.6163 15.2359 14.5797C15.4368 14.3022 15.6099 14.0073 15.7812 13.711C15.807 13.6669 15.8328 13.6229 15.8593 13.5775C17.0183 11.5096 17.1977 8.96535 17.1913 6.64144C17.1912 6.56192 17.1912 6.48241 17.1911 6.4029C17.191 6.19632 17.1906 5.98974 17.1902 5.78316C17.1898 5.57128 17.1896 5.3594 17.1894 5.14752C17.189 4.73378 17.1883 4.32004 17.1875 3.9063C16.5346 3.67101 15.8804 3.44088 15.2227 3.21929C14.5465 2.99141 13.8715 2.76079 13.1982 2.52446C12.5236 2.28784 11.8474 2.05618 11.1705 1.82628C11.0915 1.79945 11.0126 1.77258 10.9337 1.74569C10.7864 1.69553 10.6391 1.64558 10.4918 1.59566C10.4248 1.57282 10.4248 1.57282 10.3564 1.54952C10.3156 1.53574 10.2748 1.52197 10.2328 1.50778C10.1971 1.49567 10.1614 1.48356 10.1246 1.47108C9.98832 1.43012 9.91034 1.45921 9.77789 1.50419Z" fill="white"/>
<path d="M10.6114 2.81529C10.6649 2.83361 10.6649 2.83361 10.7195 2.8523C10.8363 2.89241 10.9529 2.93304 11.0695 2.97368C11.152 3.00214 11.2346 3.03058 11.3172 3.05898C11.5685 3.14558 11.8195 3.23287 12.0705 3.32036C12.1074 3.33321 12.1443 3.34606 12.1823 3.35931C12.4901 3.46658 12.7979 3.57396 13.1055 3.68198C13.4965 3.8191 13.8883 3.95334 14.2812 4.08513C14.3259 4.10016 14.3706 4.1152 14.4166 4.13069C14.6355 4.20431 14.8545 4.27761 15.0737 4.35032C15.1532 4.37701 15.2327 4.40371 15.3122 4.43043C15.3484 4.44229 15.3846 4.45415 15.4218 4.46637C15.6647 4.54857 15.8687 4.62311 16.0158 4.84379C16.0257 4.9518 16.0257 4.9518 16.0259 5.08468C16.0261 5.1346 16.0264 5.18452 16.0266 5.23595C16.0265 5.29093 16.0263 5.34591 16.0262 5.40089C16.0262 5.45816 16.0263 5.51543 16.0264 5.5727C16.0265 5.69364 16.0263 5.81459 16.026 5.93553C16.0255 6.08649 16.0258 6.23743 16.0262 6.38838C16.0289 7.41095 15.9974 8.43293 15.8669 9.44829C15.862 9.48734 15.862 9.48734 15.857 9.52718C15.5568 11.9074 14.635 14.1028 12.6955 15.6153C12.6278 15.667 12.5598 15.7181 12.4914 15.7688C12.4199 15.8219 12.349 15.8759 12.2781 15.9299C10.6195 17.1837 10.6195 17.1837 9.93526 17.1638C9.73685 17.1305 9.5609 17.0327 9.38249 16.9434C9.33955 16.9223 9.2966 16.9012 9.25236 16.8795C8.85895 16.6825 8.48842 16.4586 8.12516 16.211C8.08737 16.1855 8.08737 16.1855 8.04881 16.1594C7.70369 15.925 7.38373 15.6659 7.07048 15.3907C7.03634 15.3609 7.0022 15.3312 6.96702 15.3005C6.5603 14.9406 6.19729 14.5655 5.87217 14.1314C5.82304 14.066 5.77312 14.0012 5.72313 13.9364C4.57613 12.421 4.22273 10.5626 4.06266 8.71098C4.05655 8.64566 4.05655 8.64566 4.0503 8.57901C3.97706 7.77229 3.97413 6.963 3.9704 6.15361C3.96989 6.06467 3.96911 5.97573 3.96826 5.88679C3.96695 5.7451 3.96648 5.60343 3.96663 5.46173C3.96654 5.38318 3.9657 5.30462 3.96484 5.22607C3.96508 5.17858 3.96532 5.1311 3.96556 5.08217C3.96545 5.0407 3.96534 4.99922 3.96522 4.95648C3.98952 4.81471 4.0411 4.75047 4.14079 4.64848C4.26281 4.58835 4.26281 4.58835 4.4098 4.53725C4.43697 4.52762 4.46414 4.518 4.49213 4.50809C4.58313 4.47609 4.67443 4.44507 4.76579 4.41411C4.83114 4.39155 4.89648 4.36898 4.96181 4.34638C5.14146 4.28452 5.3214 4.22357 5.50144 4.16285C5.70426 4.09442 5.90695 4.02563 6.10963 3.9568C6.15092 3.94278 6.1922 3.92876 6.23474 3.91432C6.60818 3.7873 6.98072 3.65775 7.35301 3.52737C7.4559 3.49137 7.55884 3.45548 7.66178 3.41962C7.98064 3.30854 8.29929 3.19698 8.61734 3.08361C8.76451 3.0313 8.91189 2.97958 9.05931 2.92797C9.12904 2.90341 9.19868 2.87859 9.26822 2.8535C9.36437 2.81884 9.46081 2.78508 9.55735 2.75151C9.58523 2.74121 9.61311 2.73091 9.64184 2.72029C9.98425 2.60372 10.2811 2.69913 10.6114 2.81529ZM9.69344 3.62432C9.64799 3.63966 9.60253 3.65499 9.55569 3.67079C9.50599 3.68789 9.45629 3.705 9.4066 3.72212C9.35452 3.73982 9.30244 3.75749 9.25035 3.77514C9.11077 3.82252 8.97133 3.87028 8.83191 3.91811C8.71627 3.95774 8.60056 3.99714 8.48485 4.03655C7.61166 4.33392 6.74 4.63564 5.86978 4.94158C5.62975 5.02594 5.38943 5.10945 5.14909 5.19292C5.08017 5.21687 5.01125 5.24083 4.94233 5.26478C4.89696 5.28055 4.8516 5.29631 4.80485 5.31254C4.77244 8.39771 4.77556 11.8025 7.03141 14.1797C7.09641 14.2449 7.16152 14.31 7.22673 14.375C7.25769 14.4074 7.28866 14.4397 7.32057 14.473C7.93735 15.1097 8.68503 15.6012 9.46393 16.0184C9.52602 16.0518 9.5875 16.0864 9.64891 16.1211C9.69951 16.1487 9.69951 16.1487 9.75114 16.1768C9.77904 16.1922 9.80693 16.2076 9.83567 16.2235C10.0567 16.2914 10.2464 16.1745 10.4389 16.0746C10.4738 16.056 10.5087 16.0373 10.5446 16.0181C10.5809 15.9988 10.6173 15.9795 10.6547 15.9597C11.7675 15.3599 12.8105 14.501 13.5549 13.4766C13.5712 13.4542 13.5875 13.4318 13.6044 13.4086C15.2705 11.0911 15.2092 8.04587 15.1955 5.31254C14.2656 4.98609 13.3345 4.66357 12.4009 4.34786C11.9745 4.20367 11.5486 4.05861 11.1246 3.90767C11.0736 3.88957 11.0736 3.88957 11.0217 3.8711C10.864 3.81501 10.7064 3.75855 10.549 3.7015C10.494 3.68182 10.439 3.66214 10.3839 3.64247C10.3368 3.62542 10.2897 3.60837 10.2412 3.59081C10.0361 3.53106 9.89382 3.55603 9.69344 3.62432Z" fill="white"/>
<path d="M12.3047 7.92961C12.4208 7.99933 12.5166 8.08009 12.5781 8.20305C12.5934 8.40553 12.5777 8.50737 12.4609 8.6718C12.3645 8.77939 12.2626 8.8812 12.1603 8.98319C12.1144 9.02933 12.1144 9.02933 12.0677 9.07641C11.9667 9.1779 11.8655 9.27909 11.7642 9.38027C11.6939 9.45073 11.6236 9.5212 11.5533 9.59168C11.406 9.73928 11.2585 9.88673 11.111 10.0341C10.9406 10.2043 10.7705 10.3748 10.6006 10.5455C10.4369 10.71 10.2729 10.8741 10.1088 11.0381C10.0391 11.1079 9.96944 11.1777 9.89991 11.2476C9.80277 11.3452 9.70525 11.4425 9.60764 11.5396C9.57894 11.5686 9.55024 11.5976 9.52067 11.6275C9.49395 11.654 9.46723 11.6804 9.43969 11.7077C9.41669 11.7307 9.39369 11.7537 9.36999 11.7774C9.2431 11.8789 9.1337 11.9134 8.97217 11.9164C8.61349 11.8131 8.32248 11.4156 8.06242 11.1555C7.9927 11.0859 7.92267 11.0166 7.85263 10.9473C7.80801 10.9028 7.7634 10.8582 7.71881 10.8137C7.69798 10.7931 7.67715 10.7726 7.65568 10.7514C7.50691 10.6017 7.42883 10.5061 7.40967 10.2953C7.42275 10.1462 7.44623 10.0769 7.53906 9.96086C7.65254 9.8726 7.78251 9.85909 7.92492 9.86311C8.02805 9.88753 8.07466 9.92749 8.15247 9.99901C8.17952 10.0238 8.20657 10.0486 8.23444 10.0741C8.38253 10.2156 8.52785 10.3597 8.67188 10.5053C8.71727 10.551 8.71727 10.551 8.76358 10.5975C8.83727 10.6717 8.91087 10.7459 8.98438 10.8202C9.09594 10.7696 9.17605 10.7163 9.26217 10.6294C9.28517 10.6064 9.30816 10.5834 9.33186 10.5597C9.35662 10.5346 9.38138 10.5094 9.40689 10.4835C9.44655 10.4436 9.44655 10.4436 9.48702 10.403C9.54435 10.3454 9.6016 10.2876 9.65876 10.2298C9.74921 10.1384 9.8399 10.0472 9.93066 9.95607C10.1233 9.76257 10.3156 9.56877 10.5078 9.37493C10.7306 9.15031 10.9535 8.92583 11.1767 8.70167C11.2661 8.61177 11.3553 8.52163 11.4444 8.43148C11.4992 8.37644 11.5539 8.3214 11.6087 8.26637C11.6459 8.22863 11.6459 8.22863 11.6838 8.19012C11.7183 8.15561 11.7183 8.15561 11.7535 8.12042C11.7832 8.09043 11.7832 8.09043 11.8135 8.05984C11.9683 7.92867 12.1035 7.90533 12.3047 7.92961Z" fill="white"/>
</svg>
