<svg width="20" height="20" viewBox="0 0 20 20" fill="none" xmlns="http://www.w3.org/2000/svg">
<g clip-path="url(#clip0_1922_15)">
<path d="M12.0087 11.3859C11.4573 12.0145 10.7858 12.5288 10.0301 12.9016V15.0445C10.0301 15.2339 9.95487 15.4156 9.82092 15.5495C9.68696 15.6835 9.50528 15.7588 9.31584 15.7588H5.03013C4.84069 15.7588 4.65901 15.6835 4.52505 15.5495C4.3911 15.4156 4.31584 15.2339 4.31584 15.0445V12.9016C2.81062 12.1503 1.6599 10.8388 1.11062 9.24872C0.561335 7.65861 0.657263 5.91653 1.37782 4.39634C2.09837 2.87615 3.38613 1.69898 4.96474 1.11746C6.54335 0.535946 8.28702 0.596414 9.82156 1.28589M4.31584 19.2859H10.0301" stroke="white" stroke-width="1.42857" stroke-linecap="round" stroke-linejoin="round"/>
<path d="M10.5645 5.62009C10.0631 5.53294 10.0631 4.81294 10.5645 4.7258C11.4521 4.57056 12.2734 4.1549 12.9241 3.53168C13.5748 2.90846 14.0255 2.10581 14.2188 1.2258L14.2488 1.0858C14.3574 0.590086 15.0631 0.587229 15.176 1.08151L15.2131 1.24294C15.4127 2.11955 15.867 2.91756 16.5191 3.53653C17.1711 4.15551 17.9916 4.5678 18.8774 4.72151C19.3817 4.81009 19.3817 5.53294 18.8774 5.62151C17.9919 5.77549 17.1716 6.18789 16.5199 6.80685C15.8682 7.42581 15.414 8.22367 15.2145 9.10009L15.1774 9.26151C15.0645 9.7558 14.3588 9.75294 14.2503 9.25723L14.2217 9.11866C14.0281 8.23825 13.577 7.43533 12.9258 6.81207C12.2745 6.18881 11.4526 5.77481 10.5645 5.62009Z" stroke="white" stroke-width="1.42857" stroke-linecap="round" stroke-linejoin="round"/>
</g>
<defs>
<clipPath id="clip0_1922_15">
<rect width="20" height="20" fill="white"/>
</clipPath>
</defs>
</svg>
