<svg width="20" height="20" viewBox="0 0 20 20" fill="none" xmlns="http://www.w3.org/2000/svg">
<path d="M5.20817 2.91675C4.8214 2.91675 4.45046 3.07039 4.17697 3.34388C3.90348 3.61737 3.74984 3.98831 3.74984 4.37508V6.45841C3.74984 7.26341 4.40317 7.91675 5.20817 7.91675H7.2915C7.67828 7.91675 8.04921 7.7631 8.3227 7.48961C8.59619 7.21612 8.74984 6.84519 8.74984 6.45841V4.37508C8.74984 3.98831 8.59619 3.61737 8.3227 3.34388C8.04921 3.07039 7.67828 2.91675 7.2915 2.91675H5.20817ZM11.2498 4.37508C11.2498 3.57008 11.9032 2.91675 12.7082 2.91675H14.7915C15.5965 2.91675 16.2498 3.57008 16.2498 4.37508V6.45841C16.2498 6.84519 16.0962 7.21612 15.8227 7.48961C15.5492 7.7631 15.1783 7.91675 14.7915 7.91675H12.7082C12.3214 7.91675 11.9505 7.7631 11.677 7.48961C11.4035 7.21612 11.2498 6.84519 11.2498 6.45841V4.37508ZM12.7082 4.16675C12.6529 4.16675 12.5999 4.1887 12.5609 4.22777C12.5218 4.26684 12.4998 4.31983 12.4998 4.37508V6.45841C12.4998 6.57341 12.5932 6.66675 12.7082 6.66675H14.7915C14.8468 6.66675 14.8997 6.6448 14.9388 6.60573C14.9779 6.56666 14.9998 6.51367 14.9998 6.45841V4.37508C14.9998 4.31983 14.9779 4.26684 14.9388 4.22777C14.8997 4.1887 14.8468 4.16675 14.7915 4.16675H12.7082ZM5.83317 14.5834C6.16469 14.5834 6.48263 14.4517 6.71705 14.2173C6.95147 13.9829 7.08317 13.6649 7.08317 13.3334C7.08317 13.0019 6.95147 12.684 6.71705 12.4495C6.48263 12.2151 6.16469 12.0834 5.83317 12.0834C5.50165 12.0834 5.18371 12.2151 4.94929 12.4495C4.71487 12.684 4.58317 13.0019 4.58317 13.3334C4.58317 13.6649 4.71487 13.9829 4.94929 14.2173C5.18371 14.4517 5.50165 14.5834 5.83317 14.5834ZM11.2498 13.3334C11.2498 13.6649 11.1181 13.9829 10.8837 14.2173C10.6493 14.4517 10.3314 14.5834 9.99984 14.5834C9.66832 14.5834 9.35037 14.4517 9.11595 14.2173C8.88153 13.9829 8.74984 13.6649 8.74984 13.3334C8.74984 13.0019 8.88153 12.684 9.11595 12.4495C9.35037 12.2151 9.66832 12.0834 9.99984 12.0834C10.3314 12.0834 10.6493 12.2151 10.8837 12.4495C11.1181 12.684 11.2498 13.0019 11.2498 13.3334ZM14.1665 14.5834C14.498 14.5834 14.816 14.4517 15.0504 14.2173C15.2848 13.9829 15.4165 13.6649 15.4165 13.3334C15.4165 13.0019 15.2848 12.684 15.0504 12.4495C14.816 12.2151 14.498 12.0834 14.1665 12.0834C13.835 12.0834 13.517 12.2151 13.2826 12.4495C13.0482 12.684 12.9165 13.0019 12.9165 13.3334C12.9165 13.6649 13.0482 13.9829 13.2826 14.2173C13.517 14.4517 13.835 14.5834 14.1665 14.5834ZM1.6665 13.3334C1.6665 12.3389 2.06159 11.385 2.76485 10.6818C3.46811 9.9785 4.42194 9.58341 5.4165 9.58341H14.5832C15.5777 9.58341 16.5316 9.9785 17.2348 10.6818C17.9381 11.385 18.3332 12.3389 18.3332 13.3334C18.3332 14.328 17.9381 15.2818 17.2348 15.9851C16.5316 16.6883 15.5777 17.0834 14.5832 17.0834H5.4165C4.42194 17.0834 3.46811 16.6883 2.76485 15.9851C2.06159 15.2818 1.6665 14.328 1.6665 13.3334ZM5.4165 10.8334C4.75346 10.8334 4.11758 11.0968 3.64874 11.5656C3.1799 12.0345 2.9165 12.6704 2.9165 13.3334C2.9165 13.9965 3.1799 14.6323 3.64874 15.1012C4.11758 15.57 4.75346 15.8334 5.4165 15.8334H14.5832C15.2462 15.8334 15.8821 15.57 16.3509 15.1012C16.8198 14.6323 17.0832 13.9965 17.0832 13.3334C17.0832 12.6704 16.8198 12.0345 16.3509 11.5656C15.8821 11.0968 15.2462 10.8334 14.5832 10.8334H5.4165Z" fill="white"/>
</svg>
