<svg width="20" height="20" viewBox="0 0 20 20" fill="none" xmlns="http://www.w3.org/2000/svg">
<g clip-path="url(#clip0_1923_19)">
<path d="M19.1795 11.2891C19.5555 11.531 19.8562 11.8633 19.982 12.3008C20.0798 12.7533 20.0182 13.2337 19.7759 13.6248C19.6277 13.8392 19.4615 14.026 19.2721 14.2046C19.1689 14.3074 19.0748 14.4159 18.9795 14.5259C18.8584 14.6636 18.732 14.7962 18.6057 14.9293C18.4167 15.1293 18.2281 15.3297 18.0418 15.5323C17.8749 15.7137 17.7071 15.8942 17.5388 16.0743C17.369 16.256 17.1996 16.4382 17.031 16.6212C16.8394 16.8292 16.6467 17.0361 16.4535 17.2425C16.3244 17.3806 16.196 17.5194 16.0685 17.659C15.9921 17.7423 15.9152 17.8251 15.838 17.9078C15.7999 17.9486 15.7619 17.9896 15.724 18.0306C15.1349 18.6659 14.2868 19.1826 13.3998 19.2222C13.3097 19.2235 13.2196 19.2234 13.1294 19.2229C13.0777 19.2229 13.0777 19.2229 13.0249 19.2228C12.9096 19.2227 12.7942 19.2223 12.6789 19.2219C12.5961 19.2217 12.5133 19.2216 12.4306 19.2215C12.2524 19.2213 12.0743 19.221 11.8961 19.2206C11.6145 19.2201 11.3328 19.2202 11.0512 19.2204C11.0036 19.2204 10.9561 19.2205 10.9071 19.2205C10.7607 19.2206 10.6143 19.2208 10.4679 19.2209C9.86144 19.2214 9.25499 19.2215 8.64852 19.2198C8.20612 19.2185 7.76372 19.2184 7.32131 19.2196C7.08721 19.2201 6.85314 19.2201 6.61904 19.2188C6.39894 19.2176 6.1789 19.2178 5.95881 19.2191C5.87803 19.2193 5.79725 19.219 5.71647 19.2181C5.60617 19.217 5.49605 19.2178 5.38576 19.2191C5.35377 19.2183 5.32178 19.2175 5.28882 19.2167C5.14909 19.2202 5.0705 19.2269 4.96809 19.3271C4.90878 19.406 4.85641 19.4865 4.80445 19.5704C4.56811 19.8291 4.30281 19.9809 3.9512 20.0143C3.77049 20.022 3.58986 20.0208 3.40904 20.0194C3.34213 20.0195 3.27521 20.0195 3.2083 20.0196C3.06866 20.0197 2.92904 20.0192 2.78941 20.0183C2.61122 20.0172 2.43306 20.0173 2.25488 20.0178C2.1169 20.0181 1.97894 20.0178 1.84097 20.0173C1.77529 20.0171 1.70962 20.0171 1.64395 20.0172C1.13511 20.0179 0.733389 19.9825 0.351328 19.6094C0.127087 19.3395 -0.00956514 19.0966 -0.0106806 18.7391C-0.0110138 18.6907 -0.011347 18.6422 -0.0116903 18.5923C-0.011663 18.5391 -0.011627 18.4859 -0.011583 18.4327C-0.011817 18.3763 -0.0120829 18.3199 -0.0123782 18.2634C-0.0130668 18.1106 -0.0132509 17.9577 -0.0133008 17.8049C-0.0133565 17.7092 -0.0135243 17.6136 -0.0137312 17.518C-0.0144535 17.184 -0.0147726 16.85 -0.0147111 16.5161C-0.0146642 16.2053 -0.0154881 15.8946 -0.0167222 15.5839C-0.0177456 15.3166 -0.0181632 15.0493 -0.0181133 14.7821C-0.0180935 14.6227 -0.0183125 14.4633 -0.0191421 14.3039C-0.0199016 14.1538 -0.0199028 14.0038 -0.0193364 13.8538C-0.0192551 13.799 -0.0194365 13.7441 -0.019911 13.6893C-0.0236276 13.2297 0.0672195 12.8774 0.390391 12.5391C0.683214 12.2969 0.935115 12.1757 1.31908 12.1762C1.34858 12.176 1.37809 12.1757 1.40849 12.1754C1.50553 12.1747 1.60255 12.1745 1.69959 12.1744C1.76751 12.1742 1.83543 12.1739 1.90334 12.1737C2.04559 12.1732 2.18783 12.173 2.33007 12.1731C2.5115 12.1731 2.6929 12.172 2.87432 12.1707C3.01461 12.1698 3.15489 12.1697 3.29518 12.1697C3.36201 12.1696 3.42885 12.1693 3.49569 12.1687C3.89604 12.1654 4.2601 12.1659 4.59159 12.4203C4.6143 12.4442 4.63701 12.4681 4.66041 12.4927C4.72697 12.5679 4.72697 12.5679 4.80445 12.6173C4.95061 12.6094 5.08139 12.5495 5.21722 12.4973C6.2685 12.0982 7.4739 12.1036 8.51539 12.5391C8.76954 12.6542 9.02527 12.7749 9.25758 12.9298C9.36267 12.9373 9.46376 12.9403 9.56886 12.9397C9.61643 12.9399 9.61643 12.9399 9.66495 12.9402C9.73388 12.9404 9.80281 12.9405 9.87174 12.9405C9.98116 12.9404 10.0906 12.9409 10.2 12.9416C10.5111 12.9434 10.8222 12.9444 11.1333 12.9446C11.3237 12.9448 11.514 12.9458 11.7044 12.9472C11.7766 12.9476 11.8489 12.9477 11.9211 12.9475C12.5137 12.9458 12.9898 13.018 13.4421 13.4362C13.7381 13.7462 13.9307 14.0995 13.9451 14.5313C14.1494 14.3552 14.3493 14.1746 14.5478 13.992C14.7674 13.7901 14.9895 13.591 15.2116 13.3918C15.391 13.2307 15.5694 13.0686 15.7468 12.9053C15.8733 12.789 16.0002 12.6735 16.1301 12.5611C16.2705 12.4395 16.4066 12.3138 16.5427 12.1876C16.7289 12.0151 16.9158 11.8443 17.1091 11.6798C17.1428 11.6503 17.1765 11.6209 17.2112 11.5906C17.7529 11.1292 18.5181 10.9217 19.1795 11.2891ZM1.2107 13.4376C1.17111 13.5564 1.16664 13.6363 1.16642 13.7606C1.16625 13.8032 1.16608 13.8459 1.16591 13.8899C1.16593 13.9367 1.16595 13.9835 1.16597 14.0317C1.16584 14.081 1.1657 14.1303 1.16557 14.1811C1.16522 14.3164 1.16513 14.4516 1.16511 14.5869C1.16507 14.6998 1.16493 14.8127 1.16479 14.9256C1.16447 15.1919 1.16437 15.4583 1.1644 15.7246C1.16443 15.9994 1.16401 16.2742 1.1634 16.5491C1.16289 16.785 1.16268 17.0209 1.1627 17.2568C1.16271 17.3977 1.1626 17.5386 1.16219 17.6795C1.16174 17.8366 1.16192 17.9937 1.16215 18.1508C1.16193 18.1976 1.16171 18.2443 1.16149 18.2925C1.16165 18.3353 1.16181 18.378 1.16198 18.4221C1.16196 18.4592 1.16194 18.4964 1.16192 18.5347C1.17228 18.6394 1.19074 18.7022 1.24977 18.7891C1.37448 18.8307 1.4648 18.8336 1.59589 18.8345C1.64296 18.8349 1.69003 18.8352 1.73852 18.8356C1.81487 18.8359 1.81487 18.8359 1.89277 18.8361C1.94556 18.8364 1.99835 18.8366 2.05113 18.8368C2.16179 18.8372 2.27245 18.8374 2.38311 18.8376C2.52467 18.8378 2.66621 18.8387 2.80776 18.8398C2.9168 18.8406 3.02585 18.8408 3.1349 18.8408C3.21238 18.841 3.28986 18.8417 3.36735 18.8425C3.41466 18.8424 3.46197 18.8422 3.51072 18.8421C3.57303 18.8423 3.57303 18.8423 3.63661 18.8425C3.77057 18.8256 3.83825 18.7933 3.94508 18.711C3.97444 18.6129 3.97444 18.6129 3.96988 18.499C3.97043 18.455 3.97098 18.4109 3.97155 18.3655C3.97096 18.293 3.97096 18.293 3.97035 18.2191C3.97086 18.1427 3.97086 18.1427 3.97139 18.0649C3.97228 17.9252 3.97193 17.7856 3.97131 17.646C3.97082 17.5 3.97128 17.354 3.97158 17.2079C3.97194 16.9627 3.97147 16.7175 3.97054 16.4722C3.96948 16.1886 3.96982 15.905 3.9709 15.6213C3.97178 15.3779 3.97191 15.1345 3.9714 14.8911C3.97109 14.7457 3.97105 14.6003 3.9717 14.4548C3.97237 14.2927 3.97144 14.1307 3.97035 13.9686C3.97075 13.9202 3.97114 13.8719 3.97155 13.8221C3.971 13.7781 3.97045 13.734 3.96988 13.6887C3.96981 13.6503 3.96973 13.612 3.96966 13.5725C3.95333 13.4679 3.95333 13.4679 3.85293 13.4057C3.73122 13.3511 3.64452 13.3448 3.51134 13.3449C3.46415 13.3447 3.41696 13.3444 3.36835 13.3442C3.31772 13.3445 3.2671 13.3449 3.21495 13.3453C3.16218 13.3453 3.1094 13.3453 3.05664 13.3452C2.94627 13.3452 2.83593 13.3456 2.72557 13.3463C2.58428 13.3472 2.443 13.3472 2.30171 13.347C2.19283 13.3468 2.08395 13.3471 1.97508 13.3475C1.8977 13.3477 1.82032 13.3476 1.74294 13.3476C1.69588 13.348 1.64882 13.3483 1.60033 13.3487C1.55893 13.3489 1.51754 13.3491 1.47489 13.3493C1.36529 13.3596 1.3009 13.3751 1.2107 13.4376ZM17.8123 12.6954C17.775 12.7299 17.775 12.7299 17.737 12.7651C17.6037 12.8889 17.4712 13.0134 17.3394 13.1388C17.2117 13.2596 17.0806 13.3758 16.9479 13.4909C16.8454 13.5804 16.7453 13.6724 16.6453 13.7647C16.4055 13.9854 16.1634 14.2033 15.9208 14.4208C15.7414 14.582 15.563 14.7441 15.3855 14.9073C15.2342 15.0465 15.0815 15.1837 14.9256 15.3178C14.8623 15.374 14.8005 15.4319 14.7395 15.4905C14.1085 16.095 13.404 16.4582 12.5157 16.4561C12.4718 16.4563 12.4279 16.4565 12.3826 16.4567C12.2384 16.4573 12.0941 16.4572 11.9498 16.4571C11.8492 16.4573 11.7486 16.4575 11.648 16.4576C11.4376 16.4579 11.2272 16.4579 11.0168 16.4577C10.7738 16.4575 10.5309 16.458 10.2879 16.4588C10.0535 16.4596 9.81918 16.4597 9.58481 16.4595C9.48532 16.4596 9.38583 16.4598 9.28634 16.4602C9.14749 16.4606 9.00866 16.4604 8.86981 16.4599C8.8287 16.4602 8.78758 16.4605 8.74522 16.4608C8.39602 16.4583 8.39602 16.4583 8.24195 16.3282C8.13122 16.1851 8.10875 16.0778 8.11012 15.8985C8.10966 15.8393 8.10966 15.8393 8.1092 15.7789C8.13207 15.6103 8.1883 15.5116 8.32143 15.4055C8.48245 15.3306 8.62254 15.3354 8.7981 15.3366C8.83414 15.3364 8.87018 15.3362 8.90731 15.336C8.98542 15.3356 9.06354 15.3355 9.14165 15.3356C9.2655 15.3358 9.38932 15.3352 9.51316 15.3345C9.77627 15.333 10.0394 15.3325 10.3025 15.3321C10.6069 15.3316 10.9114 15.3308 11.2158 15.329C11.3375 15.3284 11.4591 15.3286 11.5807 15.3288C11.6559 15.3284 11.731 15.328 11.8062 15.3276C11.8397 15.3278 11.8732 15.3281 11.9077 15.3283C12.1318 15.3261 12.3349 15.2928 12.5388 15.1954C12.7182 15.0115 12.748 14.8802 12.7451 14.6307C12.729 14.4848 12.6752 14.4048 12.5779 14.2969C12.3565 14.1323 12.133 14.1353 11.866 14.1383C11.8 14.1386 11.734 14.139 11.668 14.1393C11.6157 14.1397 11.6157 14.1397 11.5624 14.1401C11.3764 14.1411 11.1905 14.1407 11.0046 14.1405C10.7686 14.1403 10.5326 14.1405 10.2966 14.1427C10.1054 14.1444 9.91427 14.1444 9.72305 14.1433C9.6507 14.1432 9.57835 14.1437 9.50601 14.1448C9.05235 14.1517 8.74167 14.1026 8.36732 13.8365C7.78077 13.4322 6.9557 13.3543 6.26472 13.4632C6.20511 13.4745 6.14559 13.4863 6.08619 13.4986C6.06029 13.5037 6.0344 13.5089 6.00771 13.5142C5.69777 13.5874 5.45589 13.7273 5.15602 13.8673C5.15602 15.2466 5.15602 16.6259 5.15602 18.0469C6.53026 18.0492 6.53026 18.0492 7.9045 18.0508C8.46515 18.0512 9.0258 18.0518 9.58645 18.0528C9.99482 18.0536 10.4032 18.0541 10.8116 18.0543C11.0276 18.0544 11.2437 18.0546 11.4597 18.0552C11.6635 18.0557 11.8672 18.0559 12.071 18.0558C12.1454 18.0558 12.2198 18.056 12.2942 18.0563C12.8735 18.0585 13.4463 18.0553 13.9841 17.8126C14.0189 17.797 14.0537 17.7814 14.0896 17.7654C14.6314 17.4972 15.0278 17.0017 15.4295 16.5626C15.5067 16.4787 15.584 16.3949 15.6614 16.3111C15.6801 16.2908 15.6988 16.2704 15.7181 16.2495C15.8997 16.0525 16.0832 15.8572 16.2666 15.6619C16.4379 15.4795 16.6081 15.296 16.7776 15.1119C16.9265 14.9503 17.0763 14.7895 17.2263 14.629C17.4153 14.4269 17.6035 14.2242 17.7908 14.0205C17.8963 13.9058 18.0026 13.7919 18.1097 13.6787C18.2461 13.5343 18.3813 13.3889 18.5154 13.2423C18.5469 13.2079 18.5783 13.1735 18.6108 13.138C18.7242 13.0049 18.8041 12.9029 18.8157 12.7247C18.7863 12.5644 18.7485 12.4954 18.6326 12.3829C18.2824 12.2078 18.0547 12.4689 17.8123 12.6954Z" fill="white"/>
<path d="M12.2476 0.256743C12.6175 0.522542 12.8316 0.905449 13.0443 1.29877C13.0696 1.3451 13.095 1.39142 13.1204 1.43772C13.1735 1.53454 13.2265 1.63144 13.2793 1.72841C13.3571 1.87122 13.4356 2.01367 13.5143 2.156C13.527 2.17908 13.5398 2.20216 13.5529 2.22594C13.5787 2.27265 13.6046 2.31936 13.6304 2.36607C13.6959 2.48459 13.7612 2.6032 13.8266 2.7218C13.9702 2.98238 14.1139 3.24292 14.2577 3.50343C14.3228 3.62141 14.3879 3.73938 14.453 3.85736C14.479 3.90456 14.5051 3.95176 14.5311 3.99896C15.9373 6.54779 15.9373 6.54779 15.9764 6.61858C16.0025 6.66582 16.0285 6.71305 16.0546 6.76029C16.1194 6.87771 16.1842 6.99515 16.2488 7.11265C16.3696 7.332 16.4908 7.55109 16.6134 7.7694C16.6707 7.87141 16.7278 7.97356 16.7848 8.07572C16.8118 8.12392 16.8389 8.17206 16.8661 8.22012C17.2014 8.81215 17.3939 9.32078 17.2264 9.99994C17.0991 10.434 16.8216 10.803 16.4288 11.0314C16.1066 11.1991 15.8379 11.2616 15.4778 11.2604C15.44 11.2606 15.4023 11.2607 15.3634 11.2609C15.2373 11.2614 15.1112 11.2614 14.9852 11.2613C14.8946 11.2615 14.8041 11.2618 14.7135 11.2621C14.4677 11.2628 14.222 11.263 13.9762 11.263C13.8226 11.2631 13.669 11.2632 13.5154 11.2634C13.0068 11.2641 12.4983 11.2645 11.9898 11.2644C11.9624 11.2644 11.935 11.2644 11.9068 11.2644C11.8657 11.2644 11.8657 11.2644 11.8237 11.2644C11.3796 11.2644 10.9355 11.2651 10.4913 11.2662C10.0347 11.2673 9.57803 11.2679 9.12137 11.2678C8.86524 11.2678 8.60912 11.268 8.35299 11.2688C8.11201 11.2696 7.87104 11.2696 7.63005 11.269C7.54179 11.269 7.45354 11.2691 7.36528 11.2696C6.69223 11.273 6.18756 11.208 5.67612 10.7324C5.30589 10.3407 5.18551 9.9009 5.17578 9.3728C5.22653 8.9692 5.38473 8.61722 5.58334 8.26654C5.60558 8.22638 5.62781 8.18621 5.65072 8.14483C5.71966 8.02069 5.7893 7.89697 5.85922 7.77337C5.88047 7.73576 5.90172 7.69815 5.92361 7.65939C6.00675 7.51238 6.08998 7.36542 6.17352 7.21863C6.36012 6.88984 6.53935 6.55729 6.71791 6.22408C6.89224 5.89891 7.06992 5.57582 7.25 5.25381C7.36127 5.05462 7.47204 4.85514 7.58286 4.6557C7.6077 4.61098 7.63255 4.56626 7.65816 4.52019C7.94509 4.00366 8.23027 3.48617 8.51547 2.96869C8.55493 2.8971 8.59438 2.82552 8.63384 2.75394C8.66011 2.70627 8.68638 2.65861 8.71264 2.61094C8.77773 2.49285 8.8429 2.3748 8.90823 2.25684C9.02603 2.04405 9.14339 1.83109 9.25846 1.61682C9.30988 1.52122 9.3617 1.42583 9.41358 1.33047C9.44909 1.26481 9.48405 1.19885 9.51898 1.13288C9.74058 0.726575 10.016 0.377112 10.4295 0.156187C10.4593 0.140074 10.4891 0.123961 10.5197 0.107359C11.067 -0.138522 11.7492 -0.0518056 12.2476 0.256743ZM10.8202 1.36712C10.626 1.65742 10.4655 1.97178 10.2977 2.27777C10.2703 2.32762 10.2429 2.37746 10.2155 2.42731C10.1587 2.53052 10.1019 2.63375 10.0452 2.737C9.92607 2.95379 9.80651 3.17035 9.68695 3.38692C9.62196 3.50466 9.557 3.62241 9.49203 3.74017C9.46599 3.78737 9.43995 3.83457 9.41391 3.88177C9.40102 3.90514 9.38813 3.9285 9.37485 3.95257C8.00766 6.4306 8.00766 6.4306 7.9686 6.5014C7.94255 6.54862 7.91649 6.59584 7.89044 6.64306C7.82552 6.76073 7.7606 6.8784 7.69567 6.99606C7.57629 7.21244 7.45691 7.42882 7.33759 7.64523C7.31014 7.69502 7.28268 7.7448 7.25521 7.79458C7.18836 7.91577 7.12158 8.03699 7.05497 8.15832C6.94233 8.36327 6.82901 8.56763 6.71112 8.76962C6.68354 8.81738 6.68354 8.81738 6.65541 8.8661C6.62267 8.92255 6.58947 8.97874 6.55565 9.03454C6.44901 9.21941 6.40249 9.39457 6.4061 9.60931C6.47738 9.81919 6.59938 9.94033 6.79672 10.039C6.91233 10.0431 7.02703 10.0448 7.14266 10.0447C7.17893 10.0449 7.2152 10.045 7.25257 10.0452C7.37486 10.0456 7.49715 10.0458 7.61944 10.0459C7.70681 10.0462 7.79419 10.0464 7.88157 10.0467C8.1195 10.0474 8.35743 10.0478 8.59536 10.0481C8.74391 10.0483 8.89246 10.0485 9.041 10.0488C9.45223 10.0494 9.86346 10.05 10.2747 10.0503C10.3814 10.0504 10.4882 10.0505 10.5949 10.0505C10.6214 10.0505 10.648 10.0506 10.6753 10.0506C11.1051 10.0509 11.5348 10.0519 11.9646 10.0532C12.4057 10.0545 12.8469 10.0552 13.288 10.0553C13.5357 10.0554 13.7835 10.0557 14.0312 10.0567C14.2642 10.0576 14.4972 10.0578 14.7303 10.0574C14.8158 10.0574 14.9014 10.0576 14.987 10.0582C15.1037 10.0588 15.2204 10.0586 15.3372 10.0581C15.3711 10.0585 15.405 10.0589 15.44 10.0594C15.6507 10.0571 15.7696 10.022 15.9373 9.88275C16.0656 9.73742 16.0747 9.59849 16.0722 9.41179C16.0365 9.1791 15.9088 8.98335 15.7933 8.78168C15.7664 8.73326 15.7395 8.6848 15.7128 8.6363C15.6451 8.51421 15.5765 8.39269 15.5074 8.27136C15.4494 8.16938 15.392 8.06711 15.3345 7.96487C15.2723 7.85462 15.21 7.74446 15.1474 7.63449C14.9969 7.37021 14.851 7.1037 14.7069 6.83587C14.542 6.52941 14.3738 6.22518 14.2015 5.92279C13.9961 5.56213 13.7984 5.19778 13.6027 4.83182C13.4326 4.51468 13.257 4.20102 13.0789 3.88833C12.928 3.62269 12.7814 3.35493 12.6366 3.08587C12.4647 2.76671 12.29 2.44933 12.1117 2.13373C12.0914 2.09777 12.0711 2.06182 12.0502 2.02478C12.0113 1.95625 11.9722 1.88785 11.9328 1.81959C11.8929 1.75012 11.8536 1.68029 11.8149 1.61016C11.7951 1.57538 11.7754 1.5406 11.7551 1.50476C11.7377 1.47361 11.7204 1.44246 11.7025 1.41036C11.6086 1.28579 11.5022 1.22091 11.3489 1.19394C11.1267 1.19359 10.9877 1.20718 10.8202 1.36712Z" fill="white"/>
<path d="M11.6358 3.35207C11.7724 3.4756 11.8313 3.57508 11.8465 3.76126C11.8468 3.81225 11.8471 3.86325 11.8474 3.91578C11.8478 3.95811 11.8478 3.95811 11.8482 4.0013C11.8489 4.09444 11.8491 4.18757 11.8492 4.28072C11.8494 4.34561 11.8497 4.41051 11.85 4.47541C11.8504 4.61142 11.8506 4.74743 11.8505 4.88344C11.8505 5.05744 11.8516 5.23141 11.8529 5.40541C11.8538 5.53946 11.854 5.6735 11.8539 5.80755C11.854 5.87168 11.8543 5.93581 11.855 5.99994C11.8557 6.0898 11.8555 6.1796 11.855 6.26945C11.8551 6.3205 11.8552 6.37156 11.8554 6.42416C11.8264 6.63153 11.7305 6.74986 11.5797 6.88966C11.3887 6.97994 11.2233 6.98748 11.0157 6.95314C10.8435 6.88277 10.7637 6.80108 10.6812 6.63431C10.6206 6.48887 10.61 6.36203 10.6093 6.20371C10.6091 6.17712 10.6088 6.15054 10.6085 6.12314C10.6078 6.03608 10.6079 5.94905 10.6082 5.86198C10.608 5.80094 10.6078 5.7399 10.6075 5.67886C10.6072 5.55123 10.6073 5.42361 10.6077 5.29599C10.6081 5.13307 10.6073 4.97019 10.6062 4.80728C10.6055 4.68131 10.6055 4.55534 10.6057 4.42937C10.6057 4.36933 10.6055 4.3093 10.605 4.24926C10.6009 3.66187 10.6009 3.66187 10.7814 3.39845C11.05 3.18016 11.3546 3.11956 11.6358 3.35207Z" fill="white"/>
<path d="M11.5627 7.78391C11.7138 7.9088 11.8207 8.01708 11.8492 8.21757C11.8526 8.44172 11.8365 8.57687 11.6798 8.7501C11.5368 8.88263 11.4233 8.91868 11.233 8.92832C11.0527 8.92096 10.9336 8.88939 10.796 8.77131C10.6827 8.64416 10.6284 8.52089 10.6216 8.35017C10.6349 8.14674 10.6852 8.00939 10.8204 7.85166C11.0457 7.6883 11.3141 7.62688 11.5627 7.78391Z" fill="white"/>
</g>
<defs>
<clipPath id="clip0_1923_19">
<rect width="20" height="20" fill="white"/>
</clipPath>
</defs>
</svg>
