<svg width="20" height="20" viewBox="0 0 20 20" fill="none" xmlns="http://www.w3.org/2000/svg">
<path d="M2.41176 2.7683C2.45163 2.76816 2.45163 2.76816 2.4923 2.76802C2.58176 2.76776 2.67123 2.76778 2.7607 2.76779C2.82533 2.76766 2.88996 2.76752 2.95458 2.76736C3.13252 2.76697 3.31045 2.76682 3.48838 2.76672C3.68016 2.76656 3.87194 2.76619 4.06372 2.76585C4.52702 2.76508 4.99032 2.76468 5.45363 2.76434C5.67177 2.76416 5.88991 2.76396 6.10805 2.76375C6.83312 2.76309 7.5582 2.76252 8.28328 2.76224C8.47146 2.76216 8.65964 2.76209 8.84781 2.76201C8.89459 2.76199 8.94136 2.76197 8.98954 2.76195C9.74732 2.76163 10.5051 2.76064 11.2629 2.75937C12.0407 2.75808 12.8186 2.75738 13.5965 2.75725C14.0332 2.75717 14.47 2.75682 14.9068 2.75583C15.2788 2.75498 15.6508 2.75466 16.0227 2.75504C16.2125 2.75522 16.4023 2.75515 16.592 2.75439C16.7658 2.7537 16.9397 2.75374 17.1135 2.75435C17.1763 2.75444 17.2391 2.75427 17.3018 2.75381C17.7701 2.75056 18.1363 2.79985 18.4861 3.1306C18.8506 3.51695 18.8732 3.94005 18.8724 4.44973C18.8724 4.49181 18.8725 4.53388 18.8726 4.57723C18.8729 4.71777 18.8728 4.85831 18.8728 4.99885C18.8729 5.0998 18.8731 5.20075 18.8732 5.3017C18.8735 5.54719 18.8736 5.79268 18.8737 6.03816C18.8737 6.2378 18.8738 6.43745 18.8739 6.63709C18.8742 7.20373 18.8744 7.77038 18.8744 8.33702C18.8744 8.38279 18.8744 8.38279 18.8744 8.42949C18.8744 8.46004 18.8744 8.49059 18.8744 8.52207C18.8744 9.0171 18.8747 9.51214 18.8753 10.0072C18.8758 10.5161 18.8761 11.025 18.8761 11.5339C18.8761 11.8194 18.8762 12.1049 18.8766 12.3903C18.877 12.6589 18.877 12.9274 18.8767 13.1959C18.8766 13.2943 18.8767 13.3927 18.877 13.4911C18.8773 13.6257 18.8771 13.7603 18.8768 13.895C18.877 13.9336 18.8772 13.9723 18.8774 14.0121C18.8751 14.4764 18.8094 14.8729 18.4909 15.2273C18.1091 15.5816 17.6836 15.5907 17.1874 15.586C17.1874 15.9341 17.1874 16.2821 17.1874 16.6407C17.3036 16.6389 17.4198 16.6371 17.5395 16.6352C17.6522 16.634 17.7649 16.6331 17.8777 16.6321C17.9559 16.6314 18.0342 16.6303 18.1124 16.6289C18.225 16.627 18.3375 16.6262 18.4501 16.6255C18.485 16.6247 18.5199 16.6239 18.5558 16.623C18.7174 16.623 18.8061 16.6278 18.948 16.7113C19.0234 16.797 19.0234 16.797 19.0454 16.9337C19.0195 17.0943 18.9959 17.1309 18.8671 17.2267C18.7631 17.242 18.6753 17.2477 18.5714 17.2463C18.5413 17.2466 18.5112 17.2468 18.4802 17.247C18.3789 17.2476 18.2775 17.247 18.1761 17.2465C18.103 17.2467 18.0298 17.2469 17.9566 17.2472C17.7551 17.2479 17.5535 17.2476 17.352 17.2471C17.1348 17.2467 16.9176 17.2473 16.7004 17.2477C16.2748 17.2484 15.8492 17.2483 15.4235 17.2478C15.0777 17.2475 14.7319 17.2474 14.3861 17.2476C14.337 17.2476 14.2878 17.2476 14.2372 17.2476C14.1373 17.2477 14.0375 17.2477 13.9376 17.2478C13.0274 17.2482 12.1171 17.2478 11.2069 17.247C10.3755 17.2462 9.54422 17.2463 8.71291 17.247C7.77935 17.2479 6.8458 17.2482 5.91224 17.2477C5.81276 17.2477 5.71327 17.2476 5.61379 17.2476C5.56484 17.2476 5.51589 17.2475 5.46545 17.2475C5.11991 17.2474 4.77438 17.2476 4.42884 17.248C4.00794 17.2484 3.58705 17.2483 3.16615 17.2474C2.95126 17.247 2.73638 17.2469 2.52149 17.2474C2.32497 17.2479 2.12847 17.2476 1.93195 17.2468C1.86066 17.2466 1.78937 17.2467 1.71809 17.2471C1.62154 17.2475 1.52505 17.2471 1.42852 17.2463C1.40052 17.2467 1.37252 17.2471 1.34368 17.2474C1.21323 17.2455 1.14342 17.2346 1.03752 17.1559C0.947535 17.0298 0.952281 16.9477 0.976511 16.797C1.05958 16.7025 1.12671 16.6482 1.25288 16.6273C1.35223 16.6226 1.45035 16.6232 1.54978 16.6255C1.58592 16.6257 1.62206 16.6259 1.6593 16.6261C1.77433 16.627 1.88932 16.629 2.00434 16.631C2.08249 16.6317 2.16064 16.6325 2.23879 16.6331C2.43005 16.6347 2.62119 16.6377 2.81245 16.6407C2.81245 16.2927 2.81245 15.9446 2.81245 15.586C2.68918 15.5897 2.68918 15.5897 2.56343 15.5934C2.15642 15.5921 1.83721 15.5008 1.52339 15.2345C1.16129 14.8526 1.12676 14.4174 1.12754 13.9145C1.12745 13.8725 1.12736 13.8305 1.12727 13.7871C1.12702 13.6465 1.12705 13.5058 1.12709 13.3652C1.12697 13.2642 1.12684 13.1633 1.12669 13.0623C1.12637 12.8167 1.12626 12.5711 1.12624 12.3255C1.12622 12.1257 1.12614 11.926 1.12601 11.7262C1.12567 11.1593 1.12549 10.5925 1.12552 10.0256C1.12552 9.99504 1.12552 9.9645 1.12552 9.93304C1.12553 9.88718 1.12552 9.88718 1.12553 9.84039C1.12554 9.3451 1.12517 8.84981 1.12462 8.35452C1.12406 7.84543 1.12379 7.33634 1.12382 6.82725C1.12383 6.54165 1.12373 6.25605 1.12331 5.97045C1.12291 5.70177 1.12293 5.43309 1.12321 5.1644C1.12325 5.06594 1.12316 4.96748 1.12292 4.86902C1.12262 4.7343 1.1228 4.59959 1.1231 4.46488C1.1229 4.42619 1.1227 4.3875 1.12249 4.34764C1.12479 3.87929 1.18495 3.46528 1.51362 3.11534C1.78145 2.861 2.04676 2.76884 2.41176 2.7683ZM1.86253 3.62115C1.74572 3.80909 1.71391 3.99036 1.71356 4.20765C1.71341 4.24374 1.71326 4.27983 1.71311 4.31702C1.71314 4.35634 1.71318 4.39566 1.71321 4.43616C1.7131 4.4782 1.71298 4.52023 1.71286 4.56353C1.71252 4.70462 1.71246 4.8457 1.7124 4.98679C1.71222 5.08785 1.71203 5.18891 1.71182 5.28996C1.71129 5.5647 1.71105 5.83943 1.71088 6.11416C1.71077 6.28578 1.71061 6.45739 1.71043 6.62901C1.70995 7.10438 1.70955 7.57975 1.70942 8.05512C1.70941 8.08553 1.7094 8.11594 1.70939 8.14727C1.70938 8.17775 1.70938 8.20823 1.70937 8.23964C1.70935 8.30141 1.70933 8.36317 1.70931 8.42494C1.70931 8.45558 1.7093 8.48621 1.70929 8.51778C1.70913 9.01414 1.70845 9.5105 1.70754 10.0069C1.70662 10.5167 1.70613 11.0266 1.70608 11.5365C1.70605 11.8227 1.70582 12.1088 1.70511 12.395C1.70445 12.6642 1.70439 12.9334 1.70473 13.2026C1.70476 13.3013 1.70459 13.4001 1.7042 13.4988C1.70371 13.6337 1.70394 13.7687 1.70434 13.9036C1.70403 13.9425 1.70371 13.9815 1.70339 14.0217C1.70527 14.2881 1.73302 14.5524 1.8989 14.7705C2.12667 14.9469 2.29515 15.0036 2.58616 15.0016C2.6285 15.0014 2.67084 15.0012 2.71446 15.001C2.76296 15.0005 2.76296 15.0005 2.81245 15.0001C2.81279 14.9639 2.81279 14.9639 2.81314 14.927C2.81564 14.6761 2.81894 14.4251 2.8227 14.1742C2.824 14.0806 2.82509 13.9869 2.82598 13.8932C2.82729 13.7586 2.82933 13.6241 2.83152 13.4895C2.8319 13.4266 2.8319 13.4266 2.83228 13.3625C2.83344 13.3038 2.83344 13.3038 2.83462 13.244C2.83506 13.2097 2.83549 13.1753 2.83594 13.1399C2.85558 13.0227 2.88068 12.9713 2.9687 12.8907C3.08136 12.8711 3.08136 12.8711 3.22039 12.8711C3.25843 12.8708 3.25843 12.8708 3.29723 12.8705C3.38101 12.87 3.46475 12.8706 3.54853 12.8713C3.60676 12.8713 3.66499 12.8713 3.72322 12.8712C3.84525 12.8711 3.96726 12.8716 4.08928 12.8725C4.24574 12.8736 4.40216 12.8735 4.55862 12.873C4.67885 12.8727 4.79909 12.873 4.91932 12.8735C4.97701 12.8737 5.0347 12.8737 5.09239 12.8736C5.173 12.8734 5.25358 12.8741 5.33419 12.8749C5.38007 12.8752 5.42595 12.8754 5.47322 12.8756C5.58589 12.8907 5.58589 12.8907 5.65915 12.938C5.71749 13.0308 5.71861 13.0947 5.71996 13.2041C5.72074 13.244 5.72151 13.2838 5.72231 13.3249C5.72256 13.3679 5.72281 13.4109 5.72306 13.4552C5.72376 13.4992 5.72446 13.5433 5.72519 13.5886C5.72731 13.7295 5.72863 13.8704 5.72993 14.0113C5.73122 14.1068 5.73257 14.2022 5.73397 14.2977C5.73739 14.5318 5.73974 14.7659 5.74214 15.0001C6.03862 15.0001 6.3351 15.0001 6.64057 15.0001C6.64092 14.8948 6.64092 14.8948 6.64127 14.7873C6.6435 14.1269 6.64633 13.4664 6.64978 12.8059C6.65154 12.4664 6.65308 12.1268 6.65411 11.7872C6.655 11.4913 6.65631 11.1954 6.6581 10.8994C6.65904 10.7427 6.65977 10.586 6.66001 10.4292C6.66025 10.2818 6.66103 10.1343 6.66222 9.98687C6.66257 9.93268 6.66271 9.8785 6.66264 9.82431C6.66258 9.75045 6.6633 9.6766 6.66406 9.60274C6.66424 9.56137 6.66442 9.52 6.66461 9.47737C6.67964 9.3751 6.67964 9.3751 6.73216 9.30325C6.83412 9.23177 6.92549 9.24239 7.04852 9.24151C7.07387 9.24118 7.09923 9.24085 7.12535 9.24051C7.20913 9.2396 7.29288 9.23956 7.37666 9.23961C7.43489 9.23933 7.49312 9.23903 7.55135 9.2387C7.67337 9.23818 7.79538 9.23812 7.91741 9.23835C8.07387 9.23858 8.23029 9.23738 8.38674 9.2358C8.50698 9.23479 8.62721 9.23468 8.74745 9.23482C8.80514 9.23476 8.86283 9.23438 8.92051 9.23368C9.00114 9.23282 9.08168 9.23319 9.16232 9.23388C9.2082 9.2338 9.25408 9.23372 9.30135 9.23364C9.41401 9.25792 9.41401 9.25792 9.47867 9.34246C9.53804 9.46766 9.54616 9.54927 9.54677 9.6873C9.54726 9.73424 9.54775 9.78118 9.54826 9.82954C9.5482 9.88071 9.54815 9.93187 9.54809 9.98459C9.54844 10.0393 9.54884 10.0939 9.54929 10.1486C9.55037 10.2968 9.55073 10.4449 9.55097 10.5931C9.55134 10.7481 9.55236 10.903 9.55331 11.0579C9.55502 11.3512 9.55613 11.6445 9.55704 11.9378C9.55809 12.2717 9.55981 12.6057 9.56158 12.9396C9.56521 13.6264 9.56798 14.3133 9.57026 15.0001C9.85385 15.0001 10.1374 15.0001 10.4296 15.0001C10.4304 14.9181 10.4312 14.8361 10.432 14.7516C10.4346 14.4806 10.4376 14.2096 10.4409 13.9386C10.4428 13.7744 10.4446 13.6101 10.4461 13.4458C10.4476 13.2872 10.4494 13.1287 10.4514 12.9701C10.4522 12.9096 10.4527 12.8491 10.4532 12.7886C10.4539 12.7039 10.455 12.6192 10.4562 12.5345C10.4568 12.4862 10.4573 12.438 10.4578 12.3883C10.4681 12.272 10.4819 12.2054 10.5468 12.1095C10.656 12.0549 10.7465 12.0648 10.8686 12.0641C10.9199 12.0637 10.9711 12.0634 11.0239 12.063C11.0801 12.0628 11.1362 12.0626 11.1924 12.0625C11.2498 12.0623 11.3072 12.062 11.3647 12.0618C11.4851 12.0614 11.6055 12.0612 11.7259 12.061C11.8803 12.0608 12.0347 12.0599 12.1891 12.0588C12.3077 12.058 12.4262 12.0578 12.5448 12.0578C12.6018 12.0577 12.6587 12.0573 12.7156 12.0568C12.7952 12.0562 12.8748 12.0563 12.9543 12.0565C12.9997 12.0563 13.045 12.0562 13.0916 12.0561C13.2031 12.0704 13.2031 12.0704 13.2762 12.1129C13.3438 12.2275 13.336 12.3268 13.3372 12.4591C13.3375 12.4865 13.3379 12.514 13.3384 12.5423C13.3395 12.6329 13.3399 12.7236 13.3403 12.8143C13.3409 12.8772 13.3416 12.9401 13.3424 13.003C13.3442 13.1684 13.3454 13.3339 13.3464 13.4994C13.3476 13.6683 13.3494 13.8372 13.3512 14.0061C13.3545 14.3374 13.3571 14.6688 13.3593 15.0001C13.6558 15.0001 13.9523 15.0001 14.2578 15.0001C14.2582 14.9216 14.2586 14.843 14.259 14.7621C14.2628 14.0235 14.2668 13.2848 14.271 12.5462C14.2732 12.1664 14.2753 11.7866 14.2772 11.4069C14.2789 11.0759 14.2807 10.745 14.2826 10.414C14.2837 10.2387 14.2846 10.0634 14.2855 9.88814C14.2862 9.72325 14.2872 9.55835 14.2882 9.39346C14.2886 9.33285 14.2889 9.27224 14.2891 9.21163C14.2895 9.12905 14.29 9.04647 14.2906 8.96389C14.291 8.89449 14.291 8.89449 14.2914 8.82368C14.2968 8.71104 14.2968 8.71104 14.3359 8.59385C14.6853 8.59024 15.0347 8.58746 15.3841 8.58576C15.5463 8.58494 15.7086 8.58383 15.8708 8.58207C16.0273 8.58037 16.1838 8.57943 16.3404 8.57903C16.4001 8.57874 16.4599 8.57818 16.5196 8.57733C16.6033 8.5762 16.6868 8.57604 16.7705 8.57612C16.8181 8.57577 16.8657 8.57542 16.9148 8.57506C17.0312 8.59385 17.0312 8.59385 17.0961 8.65715C17.1648 8.77932 17.1634 8.86615 17.164 9.00617C17.1642 9.03182 17.1645 9.05748 17.1647 9.08391C17.1655 9.16981 17.1654 9.25568 17.1653 9.34157C17.1656 9.40317 17.166 9.46477 17.1665 9.52637C17.1676 9.69358 17.1679 9.86079 17.1682 10.028C17.1685 10.2028 17.1695 10.3775 17.1705 10.5523C17.1722 10.8832 17.1733 11.2141 17.1742 11.545C17.1753 11.9217 17.177 12.2985 17.1788 12.6752C17.1824 13.4502 17.1852 14.2251 17.1874 15.0001C17.262 15.0012 17.3366 15.002 17.4111 15.0027C17.4527 15.0032 17.4942 15.0037 17.537 15.0042C17.7753 14.9961 17.9374 14.9305 18.1005 14.756C18.3055 14.5155 18.2925 14.2123 18.2914 13.914C18.2915 13.8719 18.2917 13.8298 18.2918 13.7865C18.2922 13.6456 18.2921 13.5048 18.2919 13.3639C18.2921 13.2629 18.2923 13.1618 18.2925 13.0607C18.293 12.8148 18.2931 12.5689 18.293 12.323C18.2929 12.123 18.293 11.9231 18.2932 11.7232C18.2932 11.6804 18.2932 11.6804 18.2932 11.6369C18.2933 11.579 18.2933 11.5211 18.2934 11.4633C18.2938 10.9208 18.2937 10.3784 18.2935 9.83604C18.2933 9.34019 18.2937 8.84434 18.2945 8.34849C18.2952 7.83896 18.2955 7.32943 18.2954 6.8199C18.2953 6.53399 18.2954 6.24809 18.296 5.96219C18.2965 5.69331 18.2964 5.42444 18.2959 5.15557C18.2958 5.05695 18.2959 4.95832 18.2962 4.8597C18.2966 4.72496 18.2963 4.59023 18.2958 4.45548C18.2961 4.41657 18.2964 4.37765 18.2967 4.33756C18.2945 4.05028 18.2479 3.80499 18.0932 3.55967C17.9157 3.38726 17.7454 3.34483 17.5026 3.34451C17.463 3.34422 17.463 3.34422 17.4225 3.34393C17.334 3.34342 17.2456 3.34375 17.1571 3.34407C17.093 3.34388 17.0289 3.34364 16.9648 3.34335C16.7886 3.34271 16.6125 3.3428 16.4364 3.34301C16.2464 3.34312 16.0565 3.34255 15.8665 3.34207C15.4943 3.34125 15.1222 3.34107 14.75 3.34114C14.4476 3.34119 14.1451 3.34105 13.8427 3.34075C13.7556 3.34067 13.6685 3.34059 13.5814 3.34051C13.5164 3.34045 13.5164 3.34045 13.4501 3.34039C12.6301 3.33965 11.8102 3.33969 10.9903 3.33995C10.24 3.34017 9.4898 3.33936 8.73955 3.33807C7.96937 3.33675 7.19919 3.33616 6.429 3.33634C5.99654 3.33642 5.56407 3.33622 5.13161 3.33525C4.76344 3.33443 4.39528 3.33428 4.02711 3.33502C3.83925 3.33538 3.65141 3.33542 3.46355 3.33462C3.29156 3.33389 3.11958 3.33406 2.94758 3.33495C2.88539 3.33512 2.82319 3.33495 2.761 3.33442C2.25306 3.32786 2.25306 3.32786 1.86253 3.62115ZM14.8437 9.14073C14.8437 11.6157 14.8437 14.0907 14.8437 16.6407C15.4238 16.6407 16.0039 16.6407 16.6015 16.6407C16.6015 14.1657 16.6015 11.6907 16.6015 9.14073C16.0214 9.14073 15.4414 9.14073 14.8437 9.14073ZM7.22651 9.80479C7.22651 12.0606 7.22651 14.3165 7.22651 16.6407C7.80659 16.6407 8.38667 16.6407 8.98432 16.6407C8.98432 14.3849 8.98432 12.129 8.98432 9.80479C8.40424 9.80479 7.82417 9.80479 7.22651 9.80479ZM11.0156 12.6173C11.0156 13.945 11.0156 15.2728 11.0156 16.6407C11.5957 16.6407 12.1757 16.6407 12.7734 16.6407C12.7734 15.313 12.7734 13.9853 12.7734 12.6173C12.1933 12.6173 11.6132 12.6173 11.0156 12.6173ZM3.39839 13.4376C3.39839 14.4946 3.39839 15.5517 3.39839 16.6407C3.97846 16.6407 4.55854 16.6407 5.1562 16.6407C5.1562 15.5837 5.1562 14.5267 5.1562 13.4376C4.57612 13.4376 3.99604 13.4376 3.39839 13.4376ZM5.74214 15.586C5.74214 15.9341 5.74214 16.2821 5.74214 16.6407C6.03862 16.6407 6.3351 16.6407 6.64057 16.6407C6.64057 16.2927 6.64057 15.9446 6.64057 15.586C6.34409 15.586 6.04761 15.586 5.74214 15.586ZM9.57026 15.586C9.57026 15.9341 9.57026 16.2821 9.57026 16.6407C9.85385 16.6407 10.1374 16.6407 10.4296 16.6407C10.4296 16.2927 10.4296 15.9446 10.4296 15.586C10.146 15.586 9.86245 15.586 9.57026 15.586ZM13.3593 15.586C13.3593 15.9341 13.3593 16.2821 13.3593 16.6407C13.6558 16.6407 13.9523 16.6407 14.2578 16.6407C14.2578 16.2927 14.2578 15.9446 14.2578 15.586C13.9613 15.586 13.6648 15.586 13.3593 15.586Z" fill="white"/>
<path d="M8.81847 5.30996C9.06874 5.52029 9.21374 5.81765 9.25793 6.14004C9.26797 6.3479 9.23461 6.55979 9.14762 6.74993C9.13053 6.84417 9.13053 6.84417 9.21237 6.93122C9.26609 6.98447 9.26609 6.98447 9.32091 7.0388C9.34052 7.05851 9.36014 7.07822 9.38035 7.09852C9.44549 7.16372 9.5113 7.2282 9.57714 7.29269C9.62249 7.33778 9.66781 7.38291 9.71309 7.42808C9.83257 7.54704 9.95265 7.66538 10.0728 7.78362C10.1708 7.8802 10.2683 7.97721 10.3658 8.07424C10.482 8.18985 10.5984 8.30526 10.7148 8.42062C10.7371 8.44266 10.7593 8.46471 10.7822 8.48743C10.8452 8.54981 10.9084 8.61205 10.9716 8.67424C11.0075 8.70968 11.0435 8.74512 11.0805 8.78163C11.1718 8.87154 11.1718 8.87154 11.2892 8.94521C11.4002 8.93134 11.4954 8.9025 11.6017 8.86709C11.6944 8.86231 11.7872 8.86023 11.88 8.85976C11.9292 8.85921 11.9785 8.85866 12.0292 8.85809C12.12 8.8583 12.1791 8.86329 12.2625 8.90063C12.3647 8.94397 12.4278 8.95601 12.5392 8.94521C12.7293 8.82299 12.8804 8.66354 13.0377 8.5024C13.0846 8.45568 13.1316 8.40903 13.1786 8.36244C13.2769 8.26465 13.3743 8.16614 13.4712 8.06705C13.5955 7.94014 13.7214 7.81515 13.8481 7.69064C13.9454 7.59463 14.0417 7.49771 14.1377 7.40048C14.1838 7.354 14.2302 7.30781 14.2769 7.26191C14.3421 7.19757 14.4058 7.13211 14.4694 7.06619C14.4888 7.04747 14.5083 7.02874 14.5283 7.00945C14.5894 6.94838 14.5894 6.94838 14.6485 6.83584C14.642 6.75014 14.6232 6.6789 14.5952 6.59776C14.5049 6.32685 14.5317 5.97912 14.651 5.72256C14.8149 5.44539 15.0381 5.21315 15.3517 5.11709C15.7439 5.04418 16.0819 5.07096 16.4161 5.29775C16.6829 5.51535 16.8471 5.80061 16.8849 6.14324C16.901 6.4631 16.8077 6.73641 16.6359 7.0043C16.3581 7.26394 16.0862 7.3897 15.7081 7.39004C15.6805 7.39052 15.6528 7.39099 15.6243 7.39149C15.4607 7.39194 15.345 7.36635 15.1954 7.30459C15.0368 7.31869 14.961 7.40783 14.8524 7.51773C14.8344 7.53577 14.8164 7.55381 14.7979 7.5724C14.7385 7.63204 14.6796 7.69208 14.6206 7.75213C14.5793 7.79377 14.538 7.83537 14.4966 7.87695C14.3877 7.98652 14.2791 8.09642 14.1707 8.2064C13.9973 8.38211 13.8234 8.55732 13.6495 8.73251C13.5889 8.79359 13.5285 8.85482 13.4682 8.91608C13.4308 8.95386 13.3934 8.99164 13.356 9.02941C13.3236 9.06226 13.2912 9.0951 13.2578 9.12894C13.1656 9.21731 13.0698 9.29677 12.9689 9.3749C12.9818 9.42163 12.9946 9.46836 13.0079 9.5165C13.082 9.8566 13.1098 10.2307 12.9423 10.5459C12.7512 10.8388 12.517 11.0718 12.1675 11.1565C11.8137 11.2121 11.5042 11.1532 11.1993 10.958C10.9581 10.7658 10.8014 10.4989 10.7423 10.1952C10.7368 10.1352 10.7337 10.0748 10.7325 10.0145C10.731 9.96908 10.731 9.96908 10.7295 9.92269C10.7486 9.74625 10.8049 9.58235 10.8595 9.41396C10.7207 9.2742 10.5818 9.13457 10.4427 8.99506C10.3956 8.94771 10.3484 8.90032 10.3014 8.85289C10.0761 8.62605 9.85232 8.40143 9.60855 8.19434C9.51054 8.10617 9.4198 8.01226 9.32827 7.91738C9.29315 7.88108 9.25802 7.84477 9.22184 7.80737C9.16739 7.7508 9.11295 7.69422 9.05909 7.6371C9.00614 7.58108 8.95237 7.52583 8.89858 7.4706C8.86723 7.43777 8.83587 7.40494 8.80357 7.37112C8.71616 7.29339 8.71616 7.29339 8.609 7.3113C8.57822 7.32198 8.54745 7.33265 8.51574 7.34365C8.37263 7.39135 8.23994 7.3899 8.09093 7.39004C8.06329 7.39052 8.03564 7.39099 8.00716 7.39149C7.84348 7.39194 7.72781 7.36635 7.57824 7.30459C7.45269 7.32199 7.38944 7.36181 7.30163 7.45132C7.27919 7.4739 7.25675 7.49647 7.23363 7.51973C7.20978 7.54431 7.18594 7.56888 7.16137 7.5942C7.13632 7.61951 7.11127 7.64481 7.08546 7.67089C7.0053 7.75197 6.92554 7.83343 6.84582 7.91494C6.76659 7.99555 6.68727 8.07607 6.60784 8.15648C6.55849 8.20648 6.50926 8.25661 6.46018 8.30688C6.31504 8.45443 6.16444 8.59257 6.00776 8.72778C5.92539 8.79963 5.84733 8.87479 5.77038 8.95239C5.74318 8.9797 5.71599 9.00702 5.68798 9.03516C5.66079 9.06268 5.6336 9.0902 5.60558 9.11855C5.57718 9.14713 5.54878 9.17571 5.51952 9.20515C5.45046 9.27466 5.38149 9.34427 5.31261 9.41396C5.32087 9.43665 5.32913 9.45934 5.33765 9.48271C5.46485 9.845 5.48928 10.1778 5.32497 10.5344C5.14056 10.8589 4.88783 11.0498 4.52953 11.1565C4.22242 11.2179 3.94952 11.1551 3.67199 11.0155C3.39668 10.8254 3.21806 10.5967 3.12511 10.2733C3.08479 9.90387 3.13044 9.59536 3.34163 9.28686C3.52081 9.06422 3.71711 8.95621 3.98449 8.86709C4.07795 8.86132 4.17161 8.85845 4.26525 8.85732C4.31495 8.85632 4.36465 8.85531 4.41585 8.85427C4.54471 8.86496 4.61994 8.88059 4.73634 8.92648C4.76394 8.93724 4.79155 8.94801 4.82 8.95909C4.85115 8.97156 4.85115 8.97156 4.88292 8.98428C5.16691 8.7148 5.44916 8.44364 5.72936 8.17022C5.85954 8.0433 5.99023 7.91702 6.12229 7.79206C6.24981 7.67135 6.37572 7.54916 6.50068 7.42582C6.54853 7.37912 6.59693 7.33297 6.64587 7.28741C6.79606 7.14719 6.92916 7.01523 7.03136 6.83584C7.03419 6.64673 6.97965 6.50287 6.91417 6.32803C6.89165 6.00864 7.01174 5.73098 7.18761 5.46865C7.62336 4.99798 8.29866 4.95177 8.81847 5.30996ZM7.69542 5.82021C7.57151 5.97022 7.50403 6.09306 7.50011 6.28896C7.5474 6.50491 7.62245 6.63581 7.81261 6.75771C7.95763 6.83022 8.1231 6.81428 8.28136 6.79678C8.45519 6.71144 8.55454 6.62261 8.63293 6.44521C8.68105 6.27517 8.68122 6.16658 8.60851 6.0082C8.51568 5.84582 8.42589 5.73342 8.2394 5.67968C8.01792 5.64095 7.86652 5.67223 7.69542 5.82021ZM15.215 5.92519C15.1289 6.11529 15.1133 6.28666 15.1849 6.48534C15.2648 6.63959 15.3454 6.7367 15.5079 6.79678C15.7018 6.82276 15.8515 6.81855 16.0304 6.73574C16.1753 6.60114 16.2771 6.48296 16.2982 6.28088C16.2886 6.07316 16.2227 5.94416 16.0788 5.7958C15.9682 5.70159 15.8709 5.67215 15.7301 5.64932C15.5182 5.67888 15.3598 5.76949 15.215 5.92519ZM3.77453 9.7167C3.68499 9.89576 3.67464 10.044 3.73546 10.2314C3.81651 10.4003 3.9249 10.4887 4.09572 10.5628C4.27667 10.6124 4.42726 10.5734 4.59972 10.5028C4.7646 10.3654 4.83541 10.225 4.86095 10.017C4.83528 9.81525 4.77793 9.6946 4.62658 9.55801C4.31339 9.34118 4.01367 9.4398 3.77453 9.7167ZM11.4137 9.67519C11.3405 9.81768 11.3241 9.95776 11.3282 10.1171C11.3942 10.3188 11.5037 10.4305 11.6798 10.5468C11.852 10.6081 11.991 10.5991 12.1583 10.5272C12.317 10.436 12.4045 10.3303 12.4611 10.1562C12.4925 9.98673 12.4742 9.86768 12.3902 9.71426C12.2309 9.51418 12.2309 9.51418 11.9903 9.44372C11.734 9.43531 11.6034 9.49855 11.4137 9.67519Z" fill="white"/>
</svg>
