<svg width="20" height="20" viewBox="0 0 20 20" fill="none" xmlns="http://www.w3.org/2000/svg">
<path d="M4.1665 13.3334L8.33317 10.8334M11.6665 9.16675L15.8332 6.66675M9.99984 4.16675V8.33341M9.99984 11.6667V15.8334M4.1665 6.66675L8.33317 9.16675M11.6665 10.8334L15.8332 13.3334M17.0832 7.50008V12.0834M11.2498 17.0834L15.8332 14.5834M3.74984 14.5834L8.74984 17.0834M2.9165 12.5001V7.50008M3.74984 5.41675L8.74984 2.91675M16.2498 5.41675L11.2498 2.91675" stroke="white" stroke-width="1.25" stroke-linecap="round" stroke-linejoin="round"/>
<path d="M10 4.16675C10.6904 4.16675 11.25 3.6071 11.25 2.91675C11.25 2.22639 10.6904 1.66675 10 1.66675C9.30964 1.66675 8.75 2.22639 8.75 2.91675C8.75 3.6071 9.30964 4.16675 10 4.16675Z" stroke="white" stroke-width="1.25" stroke-linecap="round" stroke-linejoin="round"/>
<path d="M10 18.3335C10.6904 18.3335 11.25 17.7739 11.25 17.0835C11.25 16.3931 10.6904 15.8335 10 15.8335C9.30964 15.8335 8.75 16.3931 8.75 17.0835C8.75 17.7739 9.30964 18.3335 10 18.3335Z" stroke="white" stroke-width="1.25" stroke-linecap="round" stroke-linejoin="round"/>
<path d="M2.9165 7.5C3.60686 7.5 4.1665 6.94036 4.1665 6.25C4.1665 5.55964 3.60686 5 2.9165 5C2.22615 5 1.6665 5.55964 1.6665 6.25C1.6665 6.94036 2.22615 7.5 2.9165 7.5Z" stroke="white" stroke-width="1.25" stroke-linecap="round" stroke-linejoin="round"/>
<path d="M17.083 7.5C17.7734 7.5 18.333 6.94036 18.333 6.25C18.333 5.55964 17.7734 5 17.083 5C16.3927 5 15.833 5.55964 15.833 6.25C15.833 6.94036 16.3927 7.5 17.083 7.5Z" stroke="white" stroke-width="1.25" stroke-linecap="round" stroke-linejoin="round"/>
<path d="M17.083 15C17.7734 15 18.333 14.4404 18.333 13.75C18.333 13.0596 17.7734 12.5 17.083 12.5C16.3927 12.5 15.833 13.0596 15.833 13.75C15.833 14.4404 16.3927 15 17.083 15Z" stroke="white" stroke-width="1.25" stroke-linecap="round" stroke-linejoin="round"/>
<path d="M2.9165 15C3.60686 15 4.1665 14.4404 4.1665 13.75C4.1665 13.0596 3.60686 12.5 2.9165 12.5C2.22615 12.5 1.6665 13.0596 1.6665 13.75C1.6665 14.4404 2.22615 15 2.9165 15Z" stroke="white" stroke-width="1.25" stroke-linecap="round" stroke-linejoin="round"/>
<path d="M9.99967 8.125L11.6663 9.0625V10.9375L9.99967 11.875L8.33301 10.9375V9.0625L9.99967 8.125Z" stroke="white" stroke-width="1.25" stroke-linecap="round" stroke-linejoin="round"/>
</svg>
